<svg width="128" height="22" viewBox="0 0 128 22" fill="none" xmlns="http://www.w3.org/2000/svg">
<path d="M120.789 5.35936C122.218 5.35936 123.512 5.67026 124.672 6.29206C125.841 6.904 126.705 7.73307 127.265 8.77928C127.385 8.98655 127.445 9.22342 127.445 9.48991C127.445 9.89458 127.295 10.245 126.995 10.5411C126.705 10.8273 126.355 10.9704 125.946 10.9704C125.696 10.9704 125.436 10.8914 125.166 10.7335C124.906 10.5657 124.721 10.3733 124.612 10.1561C124.282 9.5442 123.787 9.08525 123.127 8.77928C122.468 8.47331 121.683 8.32033 120.774 8.32033C120.244 8.32033 119.645 8.38942 118.975 8.5276C118.306 8.66578 117.726 8.88785 117.236 9.19381C116.746 9.49978 116.502 9.91432 116.502 10.4374C116.502 10.8223 116.702 11.1283 117.101 11.3553C117.511 11.5725 118.011 11.7402 118.6 11.8587C119.2 11.9771 119.8 12.066 120.399 12.1252C120.999 12.1745 121.489 12.2189 121.868 12.2584C122.608 12.3374 123.337 12.4608 124.057 12.6285C124.776 12.7865 125.436 13.0233 126.036 13.3392C126.635 13.655 127.11 14.0843 127.46 14.6272C127.82 15.17 127.999 15.8609 127.999 16.6999C127.999 17.8941 127.65 18.8712 126.95 19.6312C126.251 20.3912 125.356 20.9538 124.267 21.319C123.177 21.6842 122.038 21.8668 120.849 21.8668C119.22 21.8668 117.736 21.5509 116.397 20.9193C115.068 20.2777 114.083 19.345 113.444 18.1211C113.324 17.8843 113.264 17.6523 113.264 17.4253C113.264 17.0206 113.409 16.6752 113.698 16.389C113.998 16.0929 114.353 15.9448 114.763 15.9448C115.023 15.9448 115.282 16.0287 115.542 16.1965C115.812 16.3544 116.002 16.5469 116.112 16.7739C116.502 17.524 117.101 18.0669 117.911 18.4024C118.73 18.738 119.705 18.9058 120.834 18.9058C121.434 18.9058 122.053 18.8416 122.693 18.7133C123.342 18.5752 123.887 18.3432 124.327 18.0175C124.776 17.6918 125.001 17.2477 125.001 16.6851C125.001 16.2508 124.806 15.9399 124.417 15.7524C124.037 15.555 123.577 15.4267 123.038 15.3674C122.508 15.3082 122.013 15.2539 121.553 15.2046C120.674 15.1158 119.765 15.0022 118.825 14.8641C117.886 14.716 117.011 14.4841 116.202 14.1682C115.402 13.8524 114.753 13.3984 114.253 12.8062C113.753 12.214 113.504 11.4244 113.504 10.4374C113.504 9.54913 113.718 8.78421 114.148 8.14267C114.588 7.50113 115.167 6.97802 115.887 6.57336C116.607 6.15882 117.391 5.85285 118.241 5.65546C119.1 5.45806 119.949 5.35936 120.789 5.35936Z" fill="black"/>
<path d="M107.357 19.6016C106.818 20.1148 106.173 20.633 105.423 21.1561C104.674 21.6694 103.795 21.926 102.785 21.926C101.476 21.926 100.387 21.5855 99.5172 20.9044C98.6477 20.2135 98.0081 19.4141 97.5984 18.5061C97.2786 17.7856 97.0837 17.0749 97.0138 16.3742C96.9538 15.6635 96.9238 14.9973 96.9238 14.3755V6.89906C96.9238 6.49439 97.0687 6.14894 97.3586 5.86272C97.6584 5.56662 98.0131 5.41857 98.4229 5.41857C98.8326 5.41857 99.1824 5.56662 99.4722 5.86272C99.772 6.14894 99.9219 6.49439 99.9219 6.89906V14.3755C99.9219 14.948 99.9469 15.4859 99.9969 15.9892C100.057 16.4827 100.172 16.917 100.342 17.2921C100.542 17.7263 100.841 18.1162 101.241 18.4616C101.641 18.7972 102.146 18.965 102.755 18.965C104.234 18.965 105.369 18.4074 106.158 17.2921C106.958 16.1768 107.352 14.6716 107.342 12.7766L107.327 6.86945C107.327 6.46478 107.472 6.11933 107.762 5.83311C108.062 5.53701 108.417 5.38896 108.826 5.38896C109.246 5.38896 109.601 5.53701 109.891 5.83311C110.181 6.11933 110.325 6.46972 110.325 6.88425L110.355 20.4899C110.355 20.8946 110.24 21.245 110.011 21.541C109.791 21.8273 109.476 21.9704 109.066 21.9704C108.656 21.9704 108.342 21.8273 108.122 21.541C107.902 21.245 107.732 20.8946 107.612 20.4899L107.357 19.6016Z" fill="black"/>
<path d="M92.4866 0C92.9663 0 93.3511 0.157918 93.6409 0.473755C93.9307 0.779722 94.0706 1.1153 94.0606 1.48048V20.5491C94.0606 20.9439 93.9007 21.2647 93.5809 21.5114C93.2711 21.7483 92.9613 21.8668 92.6515 21.8668C92.2218 21.8668 91.847 21.7286 91.5272 21.4522C91.2174 21.1759 91.0625 20.8205 91.0625 20.3863V1.48048C91.0625 1.10543 91.1974 0.764917 91.4672 0.45895C91.7471 0.152983 92.0869 0 92.4866 0Z" fill="black"/>
<path d="M76.2525 21.8223C75.8427 21.8223 75.488 21.6842 75.1881 21.4078C74.8983 21.1216 74.7534 20.7811 74.7534 20.3863V20.3715L74.743 13.9017H71.0555C70.945 13.9017 70.8555 13.8122 70.8555 13.7017V11.055C70.8555 10.9434 70.9469 10.8533 71.0585 10.855L74.7381 10.9112L74.7234 1.821C74.7234 1.55451 74.8484 1.25348 75.0982 0.9179C75.358 0.572454 75.7278 0.394796 76.2075 0.384926L80.9295 0.355316C82.3886 0.355316 83.7128 0.592194 84.902 1.06595C86.1013 1.52983 87.0507 2.23553 87.7503 3.18304C88.4598 4.13055 88.8146 5.33468 88.8146 6.79542C88.8146 8.46344 88.4448 9.80574 87.7053 10.8223C86.9657 11.8389 85.9514 12.5841 84.6622 13.0579C83.383 13.5316 81.9239 13.7932 80.2849 13.8425L77.7365 13.9017L77.7515 20.4011V20.4159C77.7515 20.8107 77.6016 21.1463 77.3018 21.4226C77.012 21.6891 76.6622 21.8223 76.2525 21.8223ZM85.8165 6.81023C85.8165 5.57649 85.3717 4.6882 84.4823 4.14536C83.6029 3.60251 82.3836 3.33109 80.8246 3.33109H77.7216L77.7365 10.9112L80.24 10.852C81.9989 10.8125 83.368 10.5164 84.3474 9.96366C85.3268 9.41095 85.8165 8.3598 85.8165 6.81023Z" fill="black"/>
<path d="M59.5731 5.43338C60.9023 5.43338 62.1215 5.75909 63.2308 6.4105C64.3401 7.06191 65.2296 7.94033 65.8992 9.04576C66.5787 10.1413 66.9185 11.3603 66.9185 12.7026C66.9185 12.9789 66.9035 13.2602 66.8736 13.5464C66.8336 13.9116 66.6637 14.2225 66.3639 14.4791C66.0741 14.7259 65.7443 14.8493 65.3745 14.8493L54.8961 14.8641C55.066 15.5747 55.3858 16.2409 55.8555 16.8627C56.3252 17.4845 56.8948 17.9879 57.5644 18.3728C58.244 18.7577 58.9835 18.9502 59.783 18.9502C60.6425 18.9502 61.412 18.7429 62.0916 18.3284C62.7711 17.9139 63.3008 17.4352 63.6806 16.8923C63.8005 16.7048 63.9804 16.5469 64.2202 16.4186C64.4701 16.2903 64.7049 16.2261 64.9248 16.2261C65.3345 16.2261 65.6843 16.3742 65.9741 16.6703C66.2739 16.9664 66.4238 17.3167 66.4238 17.7214C66.4238 18.0372 66.3339 18.3185 66.154 18.5653C65.5344 19.4634 64.6799 20.2432 63.5906 20.9044C62.5113 21.5559 61.2571 21.8816 59.828 21.8816C58.6787 21.8816 57.6094 21.6595 56.62 21.2153C55.6406 20.7712 54.7861 20.1642 54.0566 19.3943C53.3271 18.6245 52.7574 17.7411 52.3477 16.7443C51.9479 15.7376 51.748 14.6765 51.748 13.5612C51.748 12.4854 51.9479 11.4639 52.3477 10.4966C52.7474 9.51952 53.3021 8.65097 54.0116 7.89098C54.7312 7.131 55.5657 6.53387 56.5151 6.0996C57.4645 5.65545 58.4838 5.43338 59.5731 5.43338ZM63.8305 11.8883C63.6406 10.921 63.1509 10.0969 62.3614 9.41588C61.5719 8.73486 60.6425 8.39435 59.5731 8.39435C58.4838 8.39435 57.5194 8.74473 56.68 9.44549C55.8505 10.1463 55.2908 10.9655 55.001 11.9031L63.8305 11.8883Z" fill="black"/>
<path d="M51.2227 7.25438C51.2227 8.04397 50.8379 8.48318 50.0684 8.57201C49.7886 8.60162 49.4338 8.51279 49.0041 8.30552C48.5744 8.08839 48.1396 7.97982 47.6999 7.97982C46.8305 7.97982 46.1409 8.20189 45.6312 8.64604C45.1215 9.08031 44.7568 9.66757 44.5369 10.4078C44.317 11.1481 44.2071 11.9771 44.2071 12.895V20.5343C44.2071 20.9686 44.0722 21.314 43.8024 21.5707C43.5425 21.8273 43.1777 21.9556 42.708 21.9556C42.2483 21.9556 41.8836 21.8273 41.6137 21.5707C41.3439 21.314 41.209 20.9637 41.209 20.5195V6.88426C41.209 6.44011 41.3189 6.07493 41.5388 5.7887C41.7686 5.50247 42.0784 5.35936 42.4682 5.35936C42.6981 5.35936 42.9629 5.45806 43.2627 5.65546C43.5725 5.84298 43.7874 6.16869 43.9073 6.63258L44.0572 7.69853C44.1871 7.42217 44.437 7.1014 44.8067 6.73621C45.1765 6.37102 45.6162 6.05519 46.1259 5.7887C46.6356 5.51234 47.1652 5.37416 47.7149 5.37416C48.7343 5.37416 49.5737 5.4926 50.2333 5.72948C50.8929 5.95649 51.2227 6.46479 51.2227 7.25438Z" fill="black"/>
<path d="M29.9961 5.31494C30.7356 5.31494 31.4552 5.46299 32.1547 5.75908C32.8643 6.04531 33.4939 6.4105 34.0436 6.85464C34.6032 7.28892 35.0179 7.738 35.2878 8.20188L35.4527 6.78062C35.4527 6.37595 35.5726 6.03051 35.8124 5.74428C36.0523 5.44818 36.3771 5.30013 36.7868 5.30013C37.1966 5.30013 37.5464 5.44818 37.8362 5.74428C38.136 6.03051 38.2859 6.37595 38.2859 6.78062V6.81023L38.2559 20.5195C38.2559 20.9242 38.106 21.2746 37.8062 21.5707C37.5164 21.8569 37.1666 22 36.7569 22C36.3471 22 36.0223 21.8569 35.7825 21.5707C35.5426 21.2746 35.4227 20.9242 35.4227 20.5195L35.2578 19.3351C34.7381 20.2135 33.9786 20.8699 32.9792 21.3042C31.9799 21.7286 30.9755 21.9408 29.9661 21.9408C28.8368 21.9408 27.7775 21.7236 26.7881 21.2894C25.7987 20.8452 24.9293 20.2382 24.1797 19.4684C23.4302 18.6985 22.8406 17.8152 22.4109 16.8183C21.9911 15.8214 21.7812 14.7703 21.7812 13.6649C21.7812 12.5693 21.9861 11.5231 22.3959 10.5262C22.8156 9.51951 23.3952 8.62629 24.1348 7.84657C24.8843 7.05697 25.7538 6.44011 26.7431 5.99596C27.7425 5.54195 28.8268 5.31494 29.9961 5.31494ZM35.1679 13.6353C35.1679 12.668 34.938 11.7797 34.4783 10.9704C34.0286 10.1611 33.414 9.50964 32.6344 9.01615C31.8549 8.52265 30.9655 8.27591 29.9661 8.27591C28.9867 8.27591 28.1023 8.52265 27.3128 9.01615C26.5233 9.50964 25.8987 10.166 25.439 10.9852C24.9792 11.7945 24.7494 12.6729 24.7494 13.6205C24.7494 14.5778 24.9842 15.4661 25.4539 16.2853C25.9237 17.0947 26.5533 17.7461 27.3428 18.2396C28.1423 18.7331 29.0217 18.9798 29.9811 18.9798C30.9405 18.9798 31.81 18.7331 32.5895 18.2396C33.379 17.7461 34.0036 17.0947 34.4633 16.2853C34.933 15.4661 35.1679 14.5828 35.1679 13.6353Z" fill="black"/>
<path d="M18.4984 13.7389C18.8582 13.7389 19.183 13.882 19.4728 14.1682C19.7726 14.4446 19.9225 14.7555 19.9225 15.1009C19.9225 15.3773 19.8725 15.6142 19.7726 15.8116C19.2729 16.8973 18.5634 17.9089 17.6439 18.8466C16.7345 19.7743 15.6502 20.5195 14.391 21.0821C13.1318 21.6447 11.7176 21.926 10.1486 21.926C8.5996 21.926 7.20048 21.6348 5.95127 21.0525C4.70205 20.4702 3.63272 19.6756 2.74328 18.6689C1.86383 17.6523 1.18426 16.4877 0.704558 15.175C0.234853 13.8524 0 12.4558 0 10.9852C0 9.53432 0.23985 8.15253 0.719549 6.83983C1.19925 5.52714 1.88382 4.36743 2.77326 3.3607C3.6627 2.3441 4.72703 1.54464 5.96626 0.962311C7.20548 0.379987 8.58461 0.0888252 10.1037 0.0888252C11.6427 0.0888252 13.0368 0.360247 14.286 0.903092C15.5452 1.43607 16.6346 2.15163 17.554 3.04979C18.4834 3.93809 19.2079 4.91521 19.7276 5.98115C19.8376 6.18842 19.8925 6.40556 19.8925 6.63257C19.8925 6.99775 19.7576 7.33333 19.4878 7.6393C19.2279 7.93539 18.9231 8.08344 18.5733 8.08344C18.2336 8.08344 17.9238 8.01435 17.6439 7.87617C17.3741 7.72813 17.1692 7.51099 17.0293 7.22476C16.4697 6.07985 15.5902 5.0978 14.391 4.2786C13.2017 3.45939 11.7726 3.04979 10.1037 3.04979C8.65457 3.04979 7.39536 3.41498 6.32603 4.14535C5.2667 4.87573 4.44721 5.84791 3.86757 7.06191C3.28794 8.26604 2.99812 9.58367 2.99812 11.0148C2.99812 12.4558 3.28294 13.7784 3.85258 14.9825C4.43222 16.1866 5.25171 17.1489 6.31104 17.8694C7.38037 18.5899 8.64957 18.9502 10.1187 18.9502C11.218 18.9502 12.2223 18.7528 13.1318 18.358C14.0512 17.9533 14.8457 17.4204 15.5153 16.7591C16.1848 16.0978 16.6945 15.3872 17.0443 14.6272C17.3141 14.035 17.7988 13.7389 18.4984 13.7389Z" fill="black"/>
</svg>
