<svg width="118" height="35" viewBox="0 0 118 35" fill="none" xmlns="http://www.w3.org/2000/svg">
<circle cx="12.1703" cy="12.9133" r="10.0436" stroke="#11181C" stroke-width="2.86961"/>
<circle cx="17.9096" cy="21.522" r="10.0436" stroke="#11181C" stroke-width="2.86961"/>
<path d="M37.9609 24.3266H41.2108V9.26112H37.9609V24.3266Z" fill="#11181C"/>
<path d="M42.6366 24.3266H45.6497V18.3865C45.6497 16.9875 46.5751 15.976 47.888 15.976C49.1363 15.976 49.9756 16.923 49.9756 18.2358V24.3266H52.9887V17.5686C52.9887 15.0721 51.3961 13.3073 48.9426 13.3073C47.4576 13.3073 46.2523 13.9314 45.6497 14.986V13.4794H42.6366V24.3266Z" fill="#11181C"/>
<path d="M55.1707 10.2727V13.4794H53.0831V15.976H55.1707V20.388C55.1707 22.9061 56.7849 24.3266 59.2814 24.3266H61.0677V21.8085H59.6903C58.7218 21.8085 58.1623 21.3135 58.1623 20.2589V15.976H61.0677V13.4794H58.1623V10.2727H55.1707Z" fill="#11181C"/>
<path d="M68.6709 20.6463C68.4342 21.5718 67.6379 22.0452 66.4326 22.0452C64.9261 22.0452 63.9576 21.0983 63.7424 19.5702H71.5334C71.5549 19.3335 71.5764 19.0106 71.5764 18.6017C71.5764 16.1267 70.0483 13.3073 66.2174 13.3073C62.5371 13.3073 60.8584 16.1267 60.8584 18.8815C60.8584 21.6148 62.7524 24.4988 66.4326 24.4988C69.1014 24.4988 71.1675 22.9922 71.5979 20.6463H68.6709ZM66.2174 15.5025C67.6594 15.5025 68.4987 16.471 68.5848 17.6763H63.7854C64.0437 16.1697 64.8615 15.5025 66.2174 15.5025Z" fill="#11181C"/>
<path d="M79.1054 15.976V13.4794H77.8787C76.5658 13.4794 75.748 13.9314 75.1669 15.2873V13.4794H72.1538V24.3266H75.1669V19.0537C75.1669 17.2028 75.8341 15.976 77.3191 15.976H79.1054Z" fill="#11181C"/>
<path d="M79.5939 24.3266H82.5855V8.76611H79.5939V24.3266Z" fill="#11181C"/>
<path d="M89.0385 24.4988C92.3745 24.4988 94.7634 22.1313 94.7634 18.903C94.7634 15.6747 92.3745 13.3073 89.0385 13.3073C85.7026 13.3073 83.3137 15.6747 83.3137 18.903C83.3137 22.1313 85.7026 24.4988 89.0385 24.4988ZM89.0385 21.9161C87.4244 21.9161 86.3268 20.6893 86.3268 18.903C86.3268 17.0952 87.4244 15.8684 89.0385 15.8684C90.6527 15.8684 91.7503 17.0952 91.7503 18.903C91.7503 20.6893 90.6527 21.9161 89.0385 21.9161Z" fill="#11181C"/>
<path d="M100.36 24.4988C103.179 24.4988 105.418 22.6909 105.74 20.2804H102.684C102.469 21.2489 101.587 21.9161 100.489 21.9161C98.8533 21.9161 97.8848 20.6678 97.8848 18.903C97.8848 17.1382 98.8318 15.8684 100.446 15.8684C101.544 15.8684 102.469 16.5786 102.641 17.5471H105.654C105.461 15.029 103.201 13.3073 100.36 13.3073C97.0024 13.3073 94.7641 15.7393 94.7641 18.903C94.7641 22.0668 97.0024 24.4988 100.36 24.4988Z" fill="#11181C"/>
<path d="M113.654 24.3266H117.269L112.599 17.7408L116.925 13.4794H113.137L109.371 17.1812V8.76611H106.358V24.3266H109.371V20.9261L110.576 19.7424L113.654 24.3266Z" fill="#11181C"/>
</svg>
