<svg width="157" height="35" viewBox="0 0 157 35" fill="none" xmlns="http://www.w3.org/2000/svg">
<path fill-rule="evenodd" clip-rule="evenodd" d="M3.7741 20.8497C4.48996 21.5615 4.48994 22.7154 3.77407 23.4271L3.73741 23.4636C3.02154 24.1753 1.8609 24.1753 1.14504 23.4636C0.429183 22.7518 0.429194 21.5979 1.14506 20.8862L1.18173 20.8497C1.8976 20.138 3.05824 20.138 3.7741 20.8497Z" fill="#11181C"/>
<path fill-rule="evenodd" clip-rule="evenodd" d="M12.3919 21.3987C13.1065 22.1117 13.1044 23.2656 12.3872 23.9761L7.3096 29.0062C6.59245 29.7166 5.4318 29.7145 4.71723 29.0015C4.00267 28.2885 4.00476 27.1346 4.72192 26.4241L9.79957 21.394C10.5167 20.6836 11.6774 20.6857 12.3919 21.3987Z" fill="#11181C"/>
<path fill-rule="evenodd" clip-rule="evenodd" d="M19.2836 30.0577C19.8452 29.2202 20.9833 28.9939 21.8256 29.5523L21.9356 29.6252C22.778 30.1835 23.0056 31.315 22.444 32.1525C21.8824 32.99 20.7443 33.2163 19.902 32.658L19.792 32.5851C18.9496 32.0267 18.722 30.8952 19.2836 30.0577Z" fill="#11181C"/>
<path fill-rule="evenodd" clip-rule="evenodd" d="M31.3803 20.7403C32.0962 21.4521 32.0962 22.606 31.3803 23.3177L28.8873 25.7963C28.1715 26.5081 27.0108 26.5081 26.295 25.7963C25.5791 25.0846 25.5791 23.9307 26.295 23.2189L28.788 20.7403C29.5038 20.0286 30.6645 20.0286 31.3803 20.7403Z" fill="#11181C"/>
<path fill-rule="evenodd" clip-rule="evenodd" d="M31.417 11.5731C32.1329 12.2848 32.1329 13.4388 31.417 14.1505L12.9945 32.4666C12.2786 33.1784 11.118 33.1784 10.4021 32.4666C9.68627 31.7549 9.68627 30.601 10.4021 29.8892L28.8246 11.5731C29.5405 10.8614 30.7011 10.8614 31.417 11.5731Z" fill="#11181C"/>
<path fill-rule="evenodd" clip-rule="evenodd" d="M27.9342 5.94164C28.65 6.65337 28.65 7.80731 27.9342 8.51904L17.3389 19.0531C16.6231 19.7648 15.4624 19.7648 14.7466 19.0531C14.0307 18.3414 14.0307 17.1874 14.7466 16.4757L25.3418 5.94163C26.0576 5.2299 27.2183 5.2299 27.9342 5.94164Z" fill="#11181C"/>
<path fill-rule="evenodd" clip-rule="evenodd" d="M22.3424 2.36863C23.0587 3.07988 23.0595 4.23382 22.3441 4.94603L8.72432 18.5054C8.00894 19.2176 6.84829 19.2184 6.13195 18.5072C5.4156 17.7959 5.41482 16.642 6.1302 15.9298L19.75 2.37036C20.4654 1.65815 21.626 1.65737 22.3424 2.36863Z" fill="#11181C"/>
<path fill-rule="evenodd" clip-rule="evenodd" d="M8.85396 6.70936C9.56859 7.42231 9.56659 8.57625 8.8495 9.28676L3.51522 14.572C2.79813 15.2825 1.63748 15.2805 0.922852 14.5676C0.208222 13.8546 0.210219 12.7007 0.927314 11.9902L6.26159 6.70492C6.97868 5.99442 8.13933 5.9964 8.85396 6.70936Z" fill="#11181C"/>
<path fill-rule="evenodd" clip-rule="evenodd" d="M12.1199 1.43481C13.1323 1.43481 13.953 2.25078 13.953 3.25732V3.43957C13.953 4.4461 13.1323 5.26207 12.1199 5.26207C11.1075 5.26207 10.2868 4.4461 10.2868 3.43957V3.25732C10.2868 2.25078 11.1075 1.43481 12.1199 1.43481Z" fill="#11181C"/>
<path d="M44.8671 16.837H47.6865C48.7339 16.837 49.6522 16.6935 50.4413 16.4065C51.2448 16.1052 51.8761 15.6748 52.3353 15.1152C52.8088 14.5556 53.0455 13.8813 53.0455 13.0921C53.0455 12.2312 52.8088 11.521 52.3353 10.9614C51.8761 10.3875 51.2448 9.96425 50.4413 9.69164C49.6522 9.40468 48.7339 9.26119 47.6865 9.26119H42.1553V24.3267H48.0524C49.2433 24.3267 50.2763 24.1832 51.1516 23.8962C52.0268 23.5949 52.7012 23.1358 53.1746 22.5188C53.6625 21.9018 53.9064 21.0912 53.9064 20.0868C53.9064 19.3264 53.7342 18.6807 53.3899 18.1498C53.0599 17.6046 52.6151 17.1598 52.0555 16.8154C51.4959 16.4567 50.8718 16.1985 50.1831 16.0406C49.4944 15.8828 48.7841 15.8039 48.0524 15.8039H44.8671V17.7839H47.6435C48.0022 17.7839 48.325 17.8198 48.612 17.8915C48.9133 17.9489 49.1787 18.0494 49.4083 18.1929C49.6378 18.3363 49.8172 18.5229 49.9463 18.7524C50.0755 18.982 50.14 19.2546 50.14 19.5703C50.14 20.0581 50.0252 20.4455 49.7957 20.7325C49.5805 21.0051 49.2863 21.2059 48.9133 21.3351C48.5402 21.4499 48.117 21.5073 47.6435 21.5073H45.7926V12.0806H47.2991C47.9304 12.0806 48.4183 12.2097 48.7626 12.468C49.107 12.7262 49.2791 13.1136 49.2791 13.6302C49.2791 13.9745 49.2002 14.2687 49.0424 14.5126C48.8846 14.7422 48.655 14.9215 48.3537 15.0506C48.0667 15.1798 47.7152 15.2443 47.2991 15.2443H44.8671V16.837Z" fill="#11181C"/>
<path d="M55.2851 10.7032C55.2851 11.2197 55.4717 11.643 55.8447 11.973C56.2178 12.303 56.6626 12.468 57.1791 12.468C57.71 12.468 58.1548 12.303 58.5135 11.973C58.8865 11.643 59.073 11.2197 59.073 10.7032C59.073 10.1866 58.8865 9.77055 58.5135 9.45489C58.1548 9.12489 57.71 8.95989 57.1791 8.95989C56.6626 8.95989 56.2178 9.12489 55.8447 9.45489C55.4717 9.77055 55.2851 10.1866 55.2851 10.7032ZM55.608 14.4265V24.3267H58.7502V14.4265H55.608Z" fill="#11181C"/>
<path d="M60.2001 19.3766C60.2001 20.4096 60.444 21.3136 60.9318 22.0884C61.4197 22.8631 62.094 23.4658 62.9549 23.8962C63.8158 24.3267 64.7843 24.5419 65.8604 24.5419C66.9365 24.5419 67.8978 24.3267 68.7443 23.8962C69.6052 23.4658 70.2796 22.8631 70.7674 22.0884C71.2696 21.3136 71.5207 20.4096 71.5207 19.3766C71.5207 18.3292 71.2696 17.4181 70.7674 16.6433C70.2796 15.8685 69.6052 15.2659 68.7443 14.8354C67.8978 14.405 66.9365 14.1898 65.8604 14.1898C64.7843 14.1898 63.8158 14.405 62.9549 14.8354C62.094 15.2659 61.4197 15.8685 60.9318 16.6433C60.444 17.4181 60.2001 18.3292 60.2001 19.3766ZM63.536 19.3766C63.536 18.86 63.6436 18.4153 63.8588 18.0422C64.0741 17.6692 64.3538 17.3822 64.6982 17.1813C65.0426 16.9804 65.4299 16.88 65.8604 16.88C66.2765 16.88 66.6567 16.9804 67.0011 17.1813C67.3598 17.3822 67.6395 17.6692 67.8404 18.0422C68.0556 18.4153 68.1633 18.86 68.1633 19.3766C68.1633 19.8931 68.0556 20.3379 67.8404 20.7109C67.6395 21.0696 67.3598 21.3494 67.0011 21.5503C66.6567 21.7512 66.2765 21.8516 65.8604 21.8516C65.4299 21.8516 65.0426 21.7512 64.6982 21.5503C64.3538 21.3494 64.0741 21.0696 63.8588 20.7109C63.6436 20.3379 63.536 19.8931 63.536 19.3766Z" fill="#11181C"/>
<path d="M73.3682 20.7325L72.0123 22.8847C72.4571 23.229 72.9378 23.5447 73.4543 23.8316C73.9708 24.1043 74.5304 24.3195 75.133 24.4773C75.75 24.6495 76.4172 24.7356 77.1346 24.7356C78.3111 24.7356 79.2222 24.4701 79.8679 23.9393C80.5279 23.394 80.8579 22.5905 80.8579 21.5288C80.8579 20.9118 80.7216 20.4168 80.449 20.0438C80.1907 19.6707 79.8392 19.3622 79.3944 19.1183C78.964 18.8744 78.4905 18.6592 77.974 18.4726C77.4861 18.2861 77.07 18.1355 76.7257 18.0207C76.3957 17.8915 76.1374 17.7552 75.9509 17.6118C75.7787 17.4683 75.6926 17.2889 75.6926 17.0737C75.6926 16.8872 75.7644 16.7365 75.9078 16.6217C76.0657 16.507 76.2952 16.4496 76.5965 16.4496C77.0413 16.4496 77.5292 16.5787 78.06 16.837C78.5909 17.0809 79.0644 17.3965 79.4805 17.7839L80.6427 15.6748C80.2553 15.3878 79.8392 15.1367 79.3944 14.9215C78.964 14.7063 78.4977 14.5341 77.9955 14.405C77.5076 14.2758 76.9768 14.2113 76.4028 14.2113C75.6854 14.2113 75.047 14.3189 74.4874 14.5341C73.9422 14.7493 73.5045 15.065 73.1745 15.4811C72.8589 15.8972 72.701 16.4065 72.701 17.0091C72.701 17.6405 72.8374 18.157 73.11 18.5587C73.3826 18.9605 73.7269 19.2833 74.143 19.5272C74.5735 19.7568 75.0254 19.9577 75.4989 20.1298C76.0298 20.2877 76.4459 20.4383 76.7472 20.5818C77.0629 20.7253 77.2852 20.8759 77.4144 21.0338C77.5435 21.1773 77.6081 21.3566 77.6081 21.5718C77.6081 21.8014 77.5292 21.9879 77.3713 22.1314C77.2135 22.2749 76.9696 22.3466 76.6396 22.3466C76.41 22.3466 76.1374 22.3036 75.8217 22.2175C75.5061 22.1171 75.1402 21.952 74.7241 21.7225C74.3224 21.4786 73.8704 21.1486 73.3682 20.7325Z" fill="#11181C"/>
<path d="M92.0316 14.4265H88.6956L85.5319 22.3466L87.2106 22.3681L84.0038 14.4265H80.4312L84.7141 23.5303L82.3036 29.0615H85.575L92.0316 14.4265Z" fill="#11181C"/>
<path d="M98.9075 18.3005V24.3267H102.287V17.9561C102.287 16.7652 102.007 15.8398 101.447 15.1798C100.888 14.5198 99.9908 14.1898 98.7569 14.1898C98.0251 14.1898 97.4082 14.3404 96.906 14.6417C96.4181 14.943 96.0308 15.3663 95.7438 15.9115V14.4265H92.4724V24.3267H95.7438V18.3005C95.7438 17.9131 95.8155 17.5831 95.959 17.3105C96.1025 17.0378 96.3034 16.8298 96.5616 16.6863C96.8199 16.5428 97.1212 16.4711 97.4656 16.4711C97.9821 16.4711 98.348 16.6289 98.5632 16.9446C98.7928 17.2602 98.9075 17.7122 98.9075 18.3005Z" fill="#11181C"/>
<path d="M103.044 14.4265V17.1168H109.673V14.4265H103.044ZM104.787 10.983V24.3267H107.908V10.983H104.787Z" fill="#11181C"/>
<path d="M113.684 7.53943H110.412V24.3267H113.684V7.53943ZM116.847 18.3005V24.3267H120.097V17.827C120.097 17.0091 119.982 16.3204 119.753 15.7609C119.523 15.2013 119.157 14.778 118.655 14.4911C118.167 14.2041 117.515 14.0606 116.697 14.0606C115.879 14.0606 115.205 14.2543 114.674 14.6417C114.157 15.0148 113.77 15.5241 113.511 16.1698C113.253 16.8011 113.124 17.5113 113.124 18.3005H113.684C113.684 17.9131 113.755 17.5902 113.899 17.332C114.042 17.0594 114.243 16.8513 114.501 16.7078C114.76 16.55 115.061 16.4711 115.405 16.4711C115.936 16.4711 116.309 16.6289 116.525 16.9446C116.74 17.2602 116.847 17.7122 116.847 18.3005Z" fill="#11181C"/>
<path d="M127.056 24.5419C128.319 24.5419 129.388 24.298 130.263 23.8101C131.152 23.3223 131.855 22.5905 132.372 21.6149L129.467 20.9046C129.223 21.3351 128.893 21.6579 128.477 21.8731C128.075 22.0884 127.587 22.196 127.013 22.196C126.511 22.196 126.088 22.0884 125.743 21.8731C125.399 21.6436 125.141 21.3136 124.968 20.8831C124.796 20.4527 124.71 19.9361 124.71 19.3335C124.725 18.6735 124.811 18.1283 124.968 17.6978C125.141 17.2531 125.392 16.9231 125.722 16.7078C126.052 16.4926 126.461 16.385 126.948 16.385C127.336 16.385 127.673 16.4711 127.96 16.6433C128.247 16.8154 128.469 17.0594 128.627 17.375C128.785 17.6907 128.864 18.0637 128.864 18.4942C128.864 18.5946 128.835 18.7237 128.778 18.8816C128.735 19.025 128.677 19.147 128.606 19.2474L129.38 18.2574H123.268V20.0653H132.307C132.336 19.9648 132.35 19.8429 132.35 19.6994C132.35 19.5416 132.35 19.3837 132.35 19.2259C132.35 18.1642 132.142 17.2602 131.726 16.5141C131.31 15.768 130.708 15.2013 129.918 14.8139C129.129 14.4121 128.161 14.2113 127.013 14.2113C125.865 14.2113 124.868 14.4193 124.021 14.8354C123.189 15.2515 122.551 15.847 122.106 16.6217C121.661 17.3965 121.439 18.3148 121.439 19.3766C121.439 20.424 121.668 21.3351 122.128 22.1099C122.587 22.8847 123.232 23.4873 124.064 23.9177C124.911 24.3338 125.908 24.5419 127.056 24.5419Z" fill="#11181C"/>
<path d="M134.25 20.7325L132.894 22.8847C133.339 23.229 133.819 23.5447 134.336 23.8316C134.852 24.1043 135.412 24.3195 136.014 24.4773C136.631 24.6495 137.299 24.7356 138.016 24.7356C139.193 24.7356 140.104 24.4701 140.749 23.9393C141.409 23.394 141.739 22.5905 141.739 21.5288C141.739 20.9118 141.603 20.4168 141.33 20.0438C141.072 19.6707 140.721 19.3622 140.276 19.1183C139.845 18.8744 139.372 18.6592 138.855 18.4726C138.368 18.2861 137.951 18.1355 137.607 18.0207C137.277 17.8915 137.019 17.7552 136.832 17.6118C136.66 17.4683 136.574 17.2889 136.574 17.0737C136.574 16.8872 136.646 16.7365 136.789 16.6217C136.947 16.507 137.177 16.4496 137.478 16.4496C137.923 16.4496 138.411 16.5787 138.941 16.837C139.472 17.0809 139.946 17.3965 140.362 17.7839L141.524 15.6748C141.137 15.3878 140.721 15.1367 140.276 14.9215C139.845 14.7063 139.379 14.5341 138.877 14.405C138.389 14.2758 137.858 14.2113 137.284 14.2113C136.567 14.2113 135.928 14.3189 135.369 14.5341C134.824 14.7493 134.386 15.065 134.056 15.4811C133.74 15.8972 133.582 16.4065 133.582 17.0091C133.582 17.6405 133.719 18.157 133.991 18.5587C134.264 18.9605 134.608 19.2833 135.024 19.5272C135.455 19.7568 135.907 19.9577 136.38 20.1298C136.911 20.2877 137.327 20.4383 137.629 20.5818C137.944 20.7253 138.167 20.8759 138.296 21.0338C138.425 21.1773 138.489 21.3566 138.489 21.5718C138.489 21.8014 138.411 21.9879 138.253 22.1314C138.095 22.2749 137.851 22.3466 137.521 22.3466C137.291 22.3466 137.019 22.3036 136.703 22.2175C136.388 22.1171 136.022 21.952 135.606 21.7225C135.204 21.4786 134.752 21.1486 134.25 20.7325Z" fill="#11181C"/>
<path d="M142.687 10.7032C142.687 11.2197 142.874 11.643 143.247 11.973C143.62 12.303 144.065 12.468 144.581 12.468C145.112 12.468 145.557 12.303 145.916 11.973C146.289 11.643 146.475 11.2197 146.475 10.7032C146.475 10.1866 146.289 9.77055 145.916 9.45489C145.557 9.12489 145.112 8.95989 144.581 8.95989C144.065 8.95989 143.62 9.12489 143.247 9.45489C142.874 9.77055 142.687 10.1866 142.687 10.7032ZM143.01 14.4265V24.3267H146.153V14.4265H143.01Z" fill="#11181C"/>
<path d="M148.722 20.7325L147.366 22.8847C147.81 23.229 148.291 23.5447 148.808 23.8316C149.324 24.1043 149.884 24.3195 150.486 24.4773C151.103 24.6495 151.771 24.7356 152.488 24.7356C153.664 24.7356 154.576 24.4701 155.221 23.9393C155.881 23.394 156.211 22.5905 156.211 21.5288C156.211 20.9118 156.075 20.4168 155.802 20.0438C155.544 19.6707 155.193 19.3622 154.748 19.1183C154.317 18.8744 153.844 18.6592 153.327 18.4726C152.839 18.2861 152.423 18.1355 152.079 18.0207C151.749 17.8915 151.491 17.7552 151.304 17.6118C151.132 17.4683 151.046 17.2889 151.046 17.0737C151.046 16.8872 151.118 16.7365 151.261 16.6217C151.419 16.507 151.649 16.4496 151.95 16.4496C152.395 16.4496 152.882 16.5787 153.413 16.837C153.944 17.0809 154.418 17.3965 154.834 17.7839L155.996 15.6748C155.609 15.3878 155.193 15.1367 154.748 14.9215C154.317 14.7063 153.851 14.5341 153.349 14.405C152.861 14.2758 152.33 14.2113 151.756 14.2113C151.039 14.2113 150.4 14.3189 149.841 14.5341C149.295 14.7493 148.858 15.065 148.528 15.4811C148.212 15.8972 148.054 16.4065 148.054 17.0091C148.054 17.6405 148.191 18.157 148.463 18.5587C148.736 18.9605 149.08 19.2833 149.496 19.5272C149.927 19.7568 150.379 19.9577 150.852 20.1298C151.383 20.2877 151.799 20.4383 152.101 20.5818C152.416 20.7253 152.639 20.8759 152.768 21.0338C152.897 21.1773 152.961 21.3566 152.961 21.5718C152.961 21.8014 152.883 21.9879 152.725 22.1314C152.567 22.2749 152.323 22.3466 151.993 22.3466C151.763 22.3466 151.491 22.3036 151.175 22.2175C150.859 22.1171 150.494 21.952 150.077 21.7225C149.676 21.4786 149.224 21.1486 148.722 20.7325Z" fill="#11181C"/>
</svg>
