<svg width="129" height="35" viewBox="0 0 129 35" fill="none" xmlns="http://www.w3.org/2000/svg">
<circle cx="15.1286" cy="17.2177" r="12.1958" stroke="#11181C" stroke-width="4.30442"/>
<path d="M48.2611 14.6444C48.2611 15.3944 48.0803 16.0974 47.7187 16.7536C47.3706 17.4098 46.8148 17.9387 46.0515 18.3405C45.3016 18.7422 44.3508 18.9431 43.1991 18.9431H40.8489V24.3265H38.0367V10.3056H43.1991C44.2838 10.3056 45.2078 10.4931 45.9712 10.868C46.7345 11.243 47.3036 11.7586 47.6786 12.4147C48.0669 13.0709 48.2611 13.8142 48.2611 14.6444ZM43.0786 16.6732C43.8553 16.6732 44.4311 16.4992 44.8061 16.151C45.1811 15.7894 45.3685 15.2872 45.3685 14.6444C45.3685 13.2785 44.6052 12.5955 43.0786 12.5955H40.8489V16.6732H43.0786Z" fill="#11181C"/>
<path d="M54.3957 24.5073C53.3244 24.5073 52.3602 24.2729 51.5032 23.8042C50.6461 23.3221 49.9698 22.6459 49.4743 21.7754C48.9922 20.905 48.7512 19.9006 48.7512 18.7623C48.7512 17.624 48.9989 16.6197 49.4944 15.7492C50.0033 14.8788 50.693 14.2092 51.5634 13.7405C52.4339 13.2584 53.4048 13.0174 54.4761 13.0174C55.5474 13.0174 56.5183 13.2584 57.3887 13.7405C58.2592 14.2092 58.9421 14.8788 59.4376 15.7492C59.9465 16.6197 60.2009 17.624 60.2009 18.7623C60.2009 19.9006 59.9398 20.905 59.4175 21.7754C58.9087 22.6459 58.2123 23.3221 57.3285 23.8042C56.458 24.2729 55.4804 24.5073 54.3957 24.5073ZM54.3957 22.0566C54.9046 22.0566 55.38 21.9361 55.8219 21.6951C56.2772 21.4406 56.6388 21.0657 56.9066 20.5702C57.1745 20.0747 57.3084 19.4721 57.3084 18.7623C57.3084 17.7044 57.0272 16.8942 56.4647 16.3318C55.9157 15.7559 55.2394 15.468 54.4359 15.468C53.6324 15.468 52.9561 15.7559 52.4071 16.3318C51.8714 16.8942 51.6036 17.7044 51.6036 18.7623C51.6036 19.8203 51.8647 20.6371 52.387 21.213C52.9227 21.7754 53.5922 22.0566 54.3957 22.0566Z" fill="#11181C"/>
<path d="M64.2725 9.46191V24.3265H61.4603V9.46191H64.2725Z" fill="#11181C"/>
<path d="M76.8938 13.1981L70.0038 29.5894H67.0108L69.4213 24.0453L64.9619 13.1981H68.1156L70.9881 20.9719L73.9008 13.1981H76.8938Z" fill="#11181C"/>
<path d="M91.4263 13.0374C92.7922 13.0374 93.8903 13.4593 94.7206 14.3029C95.5643 15.1332 95.9861 16.2983 95.9861 17.7981V24.3265H93.1739V18.1798C93.1739 17.3093 92.9529 16.6465 92.511 16.1911C92.0691 15.7224 91.4665 15.4881 90.7032 15.4881C89.9398 15.4881 89.3305 15.7224 88.8752 16.1911C88.4333 16.6465 88.2123 17.3093 88.2123 18.1798V24.3265H85.4001V18.1798C85.4001 17.3093 85.1792 16.6465 84.7372 16.1911C84.2953 15.7224 83.6927 15.4881 82.9294 15.4881C82.1527 15.4881 81.5367 15.7224 81.0814 16.1911C80.6394 16.6465 80.4185 17.3093 80.4185 18.1798V24.3265H77.6063V13.1981H80.4185V14.544C80.78 14.0753 81.2421 13.707 81.8045 13.4392C82.3803 13.1714 83.0097 13.0374 83.6927 13.0374C84.5631 13.0374 85.3399 13.2249 86.0228 13.5999C86.7058 13.9615 87.2348 14.4837 87.6097 15.1667C87.9713 14.5239 88.4936 14.0083 89.1765 13.62C89.8729 13.2316 90.6228 13.0374 91.4263 13.0374Z" fill="#11181C"/>
<path d="M97.1281 18.7221C97.1281 17.5973 97.3491 16.5996 97.791 15.7291C98.2463 14.8587 98.8556 14.1891 99.6189 13.7204C100.396 13.2517 101.259 13.0174 102.21 13.0174C103.04 13.0174 103.764 13.1848 104.38 13.5195C105.009 13.8543 105.511 14.2762 105.886 14.785V13.1981H108.718V24.3265H105.886V22.6994C105.525 23.2217 105.022 23.6569 104.38 24.0051C103.75 24.3399 103.02 24.5073 102.19 24.5073C101.253 24.5073 100.396 24.2662 99.6189 23.7841C98.8556 23.302 98.2463 22.6258 97.791 21.7553C97.3491 20.8715 97.1281 19.8604 97.1281 18.7221ZM105.886 18.7623C105.886 18.0794 105.752 17.4968 105.484 17.0147C105.217 16.5192 104.855 16.1443 104.4 15.8898C103.944 15.622 103.456 15.4881 102.933 15.4881C102.411 15.4881 101.929 15.6153 101.487 15.8698C101.045 16.1242 100.684 16.4992 100.402 16.9946C100.134 17.4767 100.001 18.0526 100.001 18.7221C100.001 19.3917 100.134 19.9809 100.402 20.4898C100.684 20.9853 101.045 21.367 101.487 21.6348C101.942 21.9026 102.424 22.0365 102.933 22.0365C103.456 22.0365 103.944 21.9093 104.4 21.6549C104.855 21.3871 105.217 21.0121 105.484 20.53C105.752 20.0345 105.886 19.4453 105.886 18.7623Z" fill="#11181C"/>
<path d="M113.936 15.5082V20.8916C113.936 21.2665 114.023 21.5411 114.197 21.7152C114.384 21.8758 114.692 21.9562 115.121 21.9562H116.427V24.3265H114.659C112.289 24.3265 111.104 23.1748 111.104 20.8715V15.5082H109.778V13.1981H111.104V10.4462H113.936V13.1981H116.427V15.5082H113.936Z" fill="#11181C"/>
<path d="M123.913 13.0374C124.757 13.0374 125.507 13.2249 126.163 13.5999C126.819 13.9615 127.328 14.5038 127.689 15.227C128.064 15.9367 128.252 16.7938 128.252 17.7981V24.3265H125.44V18.1798C125.44 17.2959 125.219 16.6197 124.777 16.151C124.335 15.6689 123.732 15.4278 122.969 15.4278C122.192 15.4278 121.576 15.6689 121.121 16.151C120.679 16.6197 120.458 17.2959 120.458 18.1798V24.3265H117.646V9.46191H120.458V14.5842C120.82 14.1021 121.302 13.7271 121.904 13.4593C122.507 13.1781 123.177 13.0374 123.913 13.0374Z" fill="#11181C"/>
</svg>
