<svg width="129" height="35" viewBox="0 0 129 35" fill="none" xmlns="http://www.w3.org/2000/svg">
<path d="M18.9645 25.6739C16.4536 24.7413 13.871 24.5979 11.5035 25.2435C9.8535 25.674 8.27522 26.5348 6.84041 27.6109L5.83603 28.4718L5.54907 28.7588L6.19473 29.3327C6.26647 29.3327 6.26648 29.4044 6.33822 29.4762C6.4817 29.6197 6.62519 29.6914 6.84041 29.8349L7.27083 30.1218L7.70128 29.7631C7.77302 29.6914 7.9165 29.5479 8.05998 29.4762C9.35131 28.4001 10.7861 27.6827 12.2927 27.324C14.2296 26.8218 16.3101 26.8935 18.3906 27.6827C20.1123 28.3283 23.6276 29.1175 27.8603 27.324L28.0038 27.2522L28.219 27.037C28.219 26.9653 28.2907 26.9653 28.3625 26.8935C28.7212 26.4631 29.0799 26.0327 29.3668 25.5305L30.8017 23.3065L28.506 24.5978C25.1342 26.4631 22.0493 26.8218 18.9645 25.6739Z" fill="#11181C"/>
<path d="M9.13602 17.9262C11.073 17.424 13.1535 17.4957 15.2339 18.2849C17.5296 19.1457 23.4123 20.3653 30.0124 14.4109L31.0885 13.3348L31.1603 13.263L31.4472 12.9761L31.3038 12.6174C31.232 12.3304 31.0885 11.9717 30.9451 11.613L30.5864 10.6086L29.8689 11.326C29.7972 11.4695 29.6537 11.5413 29.5102 11.6847C26.3537 14.9131 21.4753 18.2131 15.8796 16.2044C13.3687 15.2718 10.786 15.1283 8.41862 15.774C6.12293 16.4196 4.1142 17.6392 2.24895 19.361V19.2892L1.17285 20.4371C1.17285 20.5088 1.10112 20.5088 1.02938 20.5806L0.814148 20.7958L0.885893 21.0827C0.957633 21.4414 1.10111 21.8001 1.17285 22.1588L1.6033 23.3067L2.3207 22.3741C2.39244 22.2306 2.53591 22.1588 2.60765 22.0154C4.1142 20.6523 6.19467 18.7153 9.13602 17.9262Z" fill="#11181C"/>
<path d="M2.17723 16.6348C3.82725 14.9131 5.69249 13.8369 7.70121 13.263C9.6382 12.7608 11.7187 12.8326 13.7991 13.6217C20.2558 15.9891 25.8515 12.1152 28.2907 10.0347L29.2233 9.10209L29.582 8.81511L29.295 8.38469C29.0798 8.16947 28.9363 7.8825 28.7211 7.59554L28.2907 7.02161L27.7885 7.5238C27.7167 7.59554 27.5733 7.73901 27.5015 7.81075C24.4884 10.6804 19.8253 13.6217 14.5165 11.613C12.0056 10.6804 9.42299 10.5369 7.05556 11.1826C5.54901 11.613 4.1142 12.3304 2.6794 13.263L1.17285 14.4826C1.02937 14.6261 0.957626 14.6978 0.814146 14.8413L0.670678 14.9848V15.2C0.598938 15.7022 0.598929 16.2044 0.527189 16.6348L0.455444 18.4283L1.67504 17.137C1.81852 16.9935 1.96201 16.7783 2.17723 16.6348Z" fill="#11181C"/>
<path d="M21.0449 30.5524L20.9014 30.9828L21.0449 30.5524C20.8297 30.4806 20.6862 30.4089 20.471 30.3371C17.9601 29.4045 15.3774 29.261 13.01 29.9067C12.5078 30.0502 12.0056 30.1937 11.5035 30.4089L9.78168 31.198L9.35126 31.4132L10.7861 31.9154C11.2165 32.0589 11.6469 32.2024 12.0774 32.3459L12.2926 32.4176L12.5078 32.3459C12.723 32.2741 12.9383 32.1306 13.1535 32.1306C13.297 32.1306 13.4404 32.0589 13.5839 31.9872C15.3057 31.5567 17.1709 31.5567 19.1797 32.2024C19.3949 32.2741 19.5384 32.3459 19.7536 32.4176L20.1123 32.5611L20.3275 32.4893C20.8297 32.3459 21.4036 32.2024 21.8341 31.9872L23.8428 31.2698L21.7623 30.7676C21.5471 30.6958 21.2601 30.6241 21.0449 30.5524Z" fill="#11181C"/>
<path d="M32.0212 15.7021L30.9451 16.7783C30.8016 16.9217 30.6582 17.0652 30.5147 17.2087C27.5733 20.0066 22.8385 23.0197 17.5297 21.0109C15.0188 20.0783 12.4361 19.9348 10.0687 20.5805C7.84476 21.2262 5.83601 22.374 4.04251 24.0958L3.10989 25.1001L2.82294 25.4588L3.10989 25.8893C3.32511 26.1762 3.4686 26.3915 3.61208 26.6784L4.04251 27.3241L4.5447 26.6784C4.61644 26.6067 4.75991 26.4632 4.83166 26.3914C6.55342 24.5262 8.41867 23.3784 10.5709 22.8044C12.5079 22.3022 14.5883 22.374 16.6688 23.1631C18.4623 23.8088 20.3276 24.024 22.1928 23.8088C25.4929 23.4501 28.7929 21.5849 31.2321 19.5044C31.3756 19.3609 31.519 19.2892 31.6625 19.1457L31.8777 18.9305V18.7152C31.8777 18.2848 31.9495 17.7826 31.9495 17.3522L32.0212 15.7021Z" fill="#11181C"/>
<path d="M4.75999 9.10211L4.54478 8.67166L4.75999 9.10211C5.19043 8.88689 5.69263 8.7434 6.12308 8.59992C8.06006 8.09774 10.1405 8.16948 12.221 8.95862C13.5841 9.4608 14.9471 9.67602 16.4537 9.67602C19.4668 9.67602 22.4798 8.59992 25.2777 6.51945L26.3538 5.65856L26.7125 5.37161L26.0669 4.86941C25.8516 4.65419 25.5647 4.43898 25.2777 4.2955L24.8473 4.00854L24.4886 4.2955C24.3451 4.36724 24.2733 4.51072 24.1299 4.58246C20.3276 7.45207 16.5254 8.24122 12.9384 6.87816C10.3558 5.94553 7.77309 5.73031 5.19044 6.51945C4.97522 6.59119 4.76 6.66293 4.47304 6.73467L4.32957 6.80641L4.11434 7.02162C4.11434 7.09336 4.04261 7.09337 3.97087 7.16511C3.68391 7.59555 3.32519 7.95426 3.03823 8.38471L1.67517 10.4652L3.89912 9.31732C4.25782 9.31732 4.54477 9.17385 4.75999 9.10211Z" fill="#11181C"/>
<path d="M10.6426 4.22365L10.8578 4.2954C11.7904 4.6541 13.2252 5.0128 15.0187 5.0128C16.884 5.0128 18.6775 4.58236 20.471 3.86495L22.6949 2.78885L21.1884 2.28668C20.7579 2.1432 20.3275 1.99972 19.8253 1.92798H19.6101L19.3949 1.9997C19.1797 2.07144 18.9644 2.21494 18.7492 2.28668C16.597 3.07582 14.4448 3.2193 12.3643 2.64538C12.1491 2.57364 11.9339 2.50189 11.7187 2.43015L11.5035 2.3584L11.2882 2.43015C10.8578 2.57363 10.4273 2.71712 9.9969 2.93234L8.34686 3.64974L10.0686 4.15191C10.2121 4.08017 10.4273 4.15191 10.6426 4.22365Z" fill="#11181C"/>
<path d="M44.4177 24.3266H41.1079L46.1511 9.71765H50.1315L55.1676 24.3266H51.8577L48.1984 13.056H48.0842L44.4177 24.3266ZM44.2109 18.5843H52.0289V20.9953H44.2109V18.5843Z" fill="#11181C"/>
<path d="M59.9076 9.71765V24.3266H56.8689V9.71765H59.9076Z" fill="#11181C"/>
<path d="M68.1697 13.3699V15.6525H61.5715V13.3699H68.1697ZM63.0694 10.7448H66.1082V20.9597C66.1082 21.2402 66.151 21.459 66.2366 21.6159C66.3222 21.7681 66.4411 21.8751 66.5933 21.9369C66.7502 21.9988 66.9309 22.0297 67.1354 22.0297C67.2781 22.0297 67.4207 22.0178 67.5634 21.994C67.7061 21.9655 67.8154 21.9441 67.8915 21.9298L68.3695 24.191C68.2173 24.2386 68.0033 24.2933 67.7275 24.3551C67.4516 24.4217 67.1164 24.4621 66.7217 24.4764C65.9893 24.5049 65.3473 24.4074 64.7957 24.1839C64.2488 23.9604 63.8232 23.6132 63.5188 23.1425C63.2145 22.6717 63.0647 22.0772 63.0694 21.3591V10.7448Z" fill="#11181C"/>
<path d="M74.1528 23.5348V13.4341H76.7065V23.5348H74.1528ZM70.3793 19.7613V17.2076H80.48V19.7613H70.3793Z" fill="#11181C"/>
<path d="M91.4509 13.9191C91.3939 13.3437 91.1489 12.8967 90.7162 12.5781C90.2834 12.2595 89.6961 12.1002 88.9543 12.1002C88.4502 12.1002 88.0246 12.1715 87.6774 12.3142C87.3303 12.4521 87.064 12.6447 86.8785 12.892C86.6978 13.1392 86.6074 13.4198 86.6074 13.7337C86.5979 13.9952 86.6526 14.2235 86.7715 14.4185C86.8951 14.6134 87.064 14.7823 87.278 14.9249C87.492 15.0628 87.7392 15.1841 88.0198 15.2887C88.3004 15.3886 88.6 15.4742 88.9186 15.5455L90.2311 15.8594C90.8684 16.0021 91.4533 16.1923 91.9859 16.4301C92.5185 16.6678 92.9798 16.9603 93.3698 17.3074C93.7597 17.6546 94.0617 18.0636 94.2757 18.5344C94.4944 19.0052 94.6062 19.5449 94.611 20.1536C94.6062 21.0477 94.3779 21.8228 93.9262 22.4791C93.4791 23.1306 92.8324 23.637 91.9859 23.9984C91.1442 24.3551 90.1289 24.5334 88.94 24.5334C87.7606 24.5334 86.7335 24.3527 85.8584 23.9913C84.9882 23.6299 84.3081 23.0949 83.8183 22.3863C83.3333 21.673 83.0788 20.7909 83.0551 19.7399H86.0439C86.0772 20.2297 86.2175 20.6387 86.4648 20.9668C86.7168 21.2902 87.0521 21.5351 87.4706 21.7015C87.8938 21.8632 88.3717 21.9441 88.9043 21.9441C89.4274 21.9441 89.8816 21.868 90.2668 21.7158C90.6567 21.5636 90.9587 21.352 91.1727 21.0809C91.3867 20.8099 91.4937 20.4984 91.4937 20.1465C91.4937 19.8184 91.3962 19.5425 91.2013 19.319C91.011 19.0955 90.7305 18.9053 90.3595 18.7484C89.9934 18.5914 89.544 18.4488 89.0113 18.3204L87.4206 17.9209C86.1889 17.6213 85.2164 17.1529 84.5031 16.5156C83.7898 15.8784 83.4355 15.02 83.4403 13.9405C83.4355 13.056 83.6709 12.2832 84.1465 11.6222C84.6268 10.9612 85.2854 10.4452 86.1224 10.0743C86.9593 9.70338 87.9104 9.51792 88.9757 9.51792C90.0599 9.51792 91.0063 9.70338 91.8147 10.0743C92.6279 10.4452 93.2604 10.9612 93.7122 11.6222C94.1639 12.2832 94.397 13.0489 94.4112 13.9191H91.4509Z" fill="#11181C"/>
<path d="M99.6702 17.9922V24.3266H96.6315V9.71765H99.5846V15.303H99.713C99.9603 14.6562 100.36 14.1498 100.911 13.7836C101.463 13.4127 102.155 13.2272 102.987 13.2272C103.748 13.2272 104.411 13.3937 104.977 13.7265C105.548 14.0547 105.99 14.5278 106.304 15.1461C106.623 15.7595 106.78 16.4943 106.775 17.3502V24.3266H103.736V17.8924C103.741 17.2171 103.57 16.6916 103.223 16.3159C102.88 15.9402 102.4 15.7524 101.782 15.7524C101.368 15.7524 101.002 15.8404 100.683 16.0163C100.369 16.1923 100.122 16.4491 99.9413 16.7867C99.7653 17.1196 99.675 17.5214 99.6702 17.9922Z" fill="#11181C"/>
<path d="M109.166 24.3266V13.3699H112.205V24.3266H109.166ZM110.693 11.9575C110.241 11.9575 109.854 11.8077 109.53 11.5081C109.212 11.2037 109.052 10.8399 109.052 10.4167C109.052 9.99822 109.212 9.63918 109.53 9.33959C109.854 9.03523 110.241 8.88306 110.693 8.88306C111.145 8.88306 111.53 9.03523 111.848 9.33959C112.172 9.63918 112.334 9.99822 112.334 10.4167C112.334 10.8399 112.172 11.2037 111.848 11.5081C111.53 11.8077 111.145 11.9575 110.693 11.9575Z" fill="#11181C"/>
<path d="M121.617 13.3699V15.6525H113.769V13.3699H121.617ZM115.317 24.3266V12.5781C115.317 11.7839 115.472 11.1253 115.781 10.6022C116.095 10.0791 116.523 9.68674 117.065 9.42518C117.607 9.16363 118.223 9.03286 118.912 9.03286C119.378 9.03286 119.804 9.06852 120.189 9.13986C120.579 9.21119 120.869 9.27539 121.059 9.33245L120.517 11.6151C120.398 11.5771 120.251 11.5414 120.075 11.5081C119.904 11.4748 119.728 11.4582 119.547 11.4582C119.1 11.4582 118.789 11.5628 118.613 11.772C118.437 11.9765 118.349 12.2642 118.349 12.6352V24.3266H115.317Z" fill="#11181C"/>
<path d="M128.216 13.3699V15.6525H121.617V13.3699H128.216ZM123.115 10.7448H126.154V20.9597C126.154 21.2402 126.197 21.459 126.283 21.6159C126.368 21.7681 126.487 21.8751 126.639 21.9369C126.796 21.9988 126.977 22.0297 127.181 22.0297C127.324 22.0297 127.467 22.0178 127.609 21.994C127.752 21.9655 127.861 21.9441 127.938 21.9298L128.415 24.191C128.263 24.2386 128.049 24.2933 127.773 24.3551C127.498 24.4217 127.162 24.4621 126.768 24.4764C126.035 24.5049 125.393 24.4074 124.842 24.1839C124.295 23.9604 123.869 23.6132 123.565 23.1425C123.261 22.6717 123.111 22.0772 123.115 21.3591V10.7448Z" fill="#11181C"/>
</svg>
