<svg width="138" height="51" viewBox="0 0 138 51" fill="none" xmlns="http://www.w3.org/2000/svg">
<path d="M64.5491 11.8713H61.7777C61.4409 9.8986 60.1717 9.01607 58.5658 9.01607C56.2606 9.01607 55.0173 10.7811 55.0173 13.9739C55.0173 17.1147 56.3124 18.9057 58.6435 18.9057C60.3012 18.9057 61.4668 17.9972 61.8813 16.2321H64.6269C64.0311 19.6844 61.6481 21.2159 58.5917 21.2159C54.6028 21.2159 52.194 18.4644 52.194 13.9739C52.194 9.27564 54.6546 6.67993 58.5658 6.67993C61.6481 6.67993 64.0829 8.41905 64.5491 11.8713Z" fill="#11181C"/>
<path d="M68.5305 11.5599H65.759C66.1994 8.49692 68.2974 6.67993 71.7424 6.67993C75.4981 6.67993 77.3631 8.88628 77.3631 12.105V17.504C77.3631 19.1653 77.5185 20.1257 77.8293 20.8784H74.9283C74.7211 20.3593 74.6434 19.6325 74.6175 18.8538C73.4519 20.4891 71.6647 21.2159 70.007 21.2159C67.2096 21.2159 65.2928 19.8921 65.2928 17.2444C65.2928 15.3496 66.3289 13.9479 68.401 13.2471C70.2401 12.6241 72.105 12.4684 74.5916 12.4424V12.1309C74.5916 10.1063 73.6591 9.01607 71.5352 9.01607C69.7479 9.01607 68.7896 10.0024 68.5305 11.5599ZM68.0902 17.1406C68.0902 18.3087 69.0486 19.0355 70.525 19.0355C72.8303 19.0355 74.5916 17.1925 74.5916 14.9602V14.3373C69.2817 14.3892 68.0902 15.5572 68.0902 17.1406Z" fill="#11181C"/>
<path d="M79.5433 20.8784V7.04333H82.3148V9.09394C83.2213 7.43269 84.6459 6.67993 86.2519 6.67993C86.7958 6.67993 87.3138 6.80972 87.5728 7.04333V9.48329C87.1584 9.35351 86.6663 9.30159 86.0964 9.30159C83.4545 9.30159 82.3148 10.9109 82.3148 13.3249V20.8784H79.5433Z" fill="#11181C"/>
<path d="M92.8839 20.9563C89.3613 20.9563 87.2373 18.2568 87.2373 13.8441C87.2373 9.22372 89.4131 6.67993 92.8839 6.67993C94.6453 6.67993 95.9663 7.3029 96.8469 8.49692V7.04333H99.6184V21.3197C99.6184 25.1094 97.1059 26.9524 93.7905 26.9524C90.4751 26.9524 88.0921 25.395 87.6 22.1763H90.3715C90.6305 23.8375 91.9515 24.7201 93.7646 24.7201C95.6036 24.7201 96.8469 23.7597 96.8469 21.3716V19.0355C95.9145 20.3074 94.5676 20.9563 92.8839 20.9563ZM93.4538 18.6202C95.6554 18.6202 96.8469 16.933 96.8469 13.8181C96.8469 10.7811 95.6036 9.01607 93.4538 9.01607C91.2521 9.01607 90.0606 10.7033 90.0606 13.8441C90.0606 16.881 91.278 18.6202 93.4538 18.6202Z" fill="#11181C"/>
<path d="M107.467 21.2159C103.453 21.2159 101.018 18.4904 101.018 13.9739C101.018 9.27564 103.53 6.67993 107.467 6.67993C111.482 6.67993 113.917 9.45733 113.917 13.9739C113.917 18.6461 111.405 21.2159 107.467 21.2159ZM107.467 18.8797C109.825 18.8797 111.094 17.1666 111.094 13.9739C111.094 10.8071 109.799 9.01607 107.467 9.01607C105.136 9.01607 103.841 10.7552 103.841 13.9739C103.841 17.1147 105.136 18.8797 107.467 18.8797Z" fill="#11181C"/>
<path d="M52.8674 44.2398V25.5507H55.6389V44.2398H52.8674Z" fill="#11181C"/>
<path d="M63.4698 44.5772C59.455 44.5772 57.0202 41.8517 57.0202 37.3352C57.0202 32.637 59.5327 30.0413 63.4698 30.0413C67.4846 30.0413 69.9193 32.8187 69.9193 37.3352C69.9193 42.0075 67.4069 44.5772 63.4698 44.5772ZM63.4698 42.2411C65.8268 42.2411 67.096 40.5279 67.096 37.3352C67.096 34.1684 65.8009 32.3774 63.4698 32.3774C61.1386 32.3774 59.8435 34.1165 59.8435 37.3352C59.8435 40.476 61.1386 42.2411 63.4698 42.2411Z" fill="#11181C"/>
<path d="M76.2956 44.3176C72.773 44.3176 70.649 41.6181 70.649 37.2054C70.649 32.585 72.8248 30.0413 76.2956 30.0413C78.057 30.0413 79.378 30.6642 80.2586 31.8583V30.4047H83.0301V44.681C83.0301 48.4708 80.5176 50.3137 77.2022 50.3137C73.8868 50.3137 71.5038 48.7563 71.0117 45.5376H73.7832C74.0422 47.1989 75.3632 48.0814 77.1763 48.0814C79.0153 48.0814 80.2586 47.121 80.2586 44.7329V42.3968C79.3261 43.6687 77.9793 44.3176 76.2956 44.3176ZM76.8655 41.9815C79.0671 41.9815 80.2586 40.2943 80.2586 37.1794C80.2586 34.1425 79.0153 32.3774 76.8655 32.3774C74.6638 32.3774 73.4723 34.0646 73.4723 37.2054C73.4723 40.2424 74.6897 41.9815 76.8655 41.9815Z" fill="#11181C"/>
<path d="M85.1031 28.6915V25.5507H87.8746V28.6915H85.1031ZM85.1031 44.2398V30.4047H87.8746V44.2398H85.1031Z" fill="#11181C"/>
<path d="M92.131 34.0386C92.131 37.5688 100.963 34.6097 100.963 40.2424C100.963 42.864 98.6064 44.5772 95.2651 44.5772C91.9238 44.5772 89.5667 43.0198 89.0486 39.7232H91.8201C92.1051 41.4624 93.4002 42.4228 95.3428 42.4228C97.2077 42.4228 98.192 41.5921 98.192 40.4241C98.192 36.9718 89.489 39.879 89.489 34.1944C89.489 32.04 91.1726 30.0413 94.6693 30.0413C97.7517 30.0413 100.031 31.4689 100.471 34.9212H97.6999C97.389 32.9744 96.3012 32.2476 94.5398 32.2476C93.0116 32.2476 92.131 33.0004 92.131 34.0386Z" fill="#11181C"/>
<path d="M102.555 40.1126V32.5591H100.69V30.4047H102.555V27.2119H105.326V30.4047H108.305V32.5591H105.326V39.9568C105.326 41.5402 105.767 42.293 107.709 42.293H108.253V44.3176C107.942 44.4734 107.295 44.5772 106.518 44.5772C103.824 44.5772 102.555 43.0976 102.555 40.1126Z" fill="#11181C"/>
<path d="M109.093 28.6915V25.5507H111.864V28.6915H109.093ZM109.093 44.2398V30.4047H111.864V44.2398H109.093Z" fill="#11181C"/>
<path d="M125.601 35.2327H122.829C122.492 33.2599 121.223 32.3774 119.617 32.3774C117.312 32.3774 116.069 34.1425 116.069 37.3352C116.069 40.476 117.364 42.267 119.695 42.267C121.353 42.267 122.518 41.3585 122.933 39.5934H125.678C125.083 43.0457 122.7 44.5772 119.643 44.5772C115.654 44.5772 113.245 41.8258 113.245 37.3352C113.245 32.637 115.706 30.0413 119.617 30.0413C122.7 30.0413 125.134 31.7804 125.601 35.2327Z" fill="#11181C"/>
<path d="M129.168 34.0386C129.168 37.5688 138 34.6097 138 40.2424C138 42.864 135.643 44.5772 132.302 44.5772C128.96 44.5772 126.603 43.0198 126.085 39.7232H128.857C129.142 41.4624 130.437 42.4228 132.379 42.4228C134.244 42.4228 135.229 41.5921 135.229 40.4241C135.229 36.9718 126.526 39.879 126.526 34.1944C126.526 32.04 128.209 30.0413 131.706 30.0413C134.788 30.0413 137.068 31.4689 137.508 34.9212H134.736C134.426 32.9744 133.338 32.2476 131.576 32.2476C130.048 32.2476 129.168 33.0004 129.168 34.0386Z" fill="#11181C"/>
<path d="M117.073 10.6466C115.887 10.6466 115.035 9.80319 115.035 8.65911C115.035 7.51503 115.887 6.67993 117.073 6.67993C118.242 6.67993 119.102 7.51503 119.102 8.65076C119.102 9.79484 118.242 10.6466 117.073 10.6466ZM117.073 10.2959C118 10.2959 118.693 9.59442 118.693 8.65076C118.693 7.73215 118 7.03067 117.073 7.03067C116.137 7.03067 115.453 7.73215 115.453 8.65911C115.453 9.60277 116.137 10.2959 117.073 10.2959ZM116.213 9.76144V7.48998H117.156C117.682 7.48998 118.008 7.75721 118.008 8.19146C118.008 8.43363 117.908 8.609 117.724 8.70922C117.833 8.78437 117.891 8.89294 117.933 9.0516L118.1 9.76144H117.549L117.432 9.17687C117.373 8.94304 117.29 8.89294 117.081 8.89294H116.755V9.76144H116.213ZM117.123 7.90752H116.755V8.52549H117.115C117.357 8.52549 117.49 8.41693 117.49 8.21651C117.49 8.03279 117.357 7.90752 117.123 7.90752Z" fill="#11181C"/>
<path fill-rule="evenodd" clip-rule="evenodd" d="M22.1214 5.848C13.1326 5.848 5.8457 13.1377 5.8457 22.13C5.8457 27.8894 8.8359 32.9551 13.3528 35.8503V42.4526C5.50065 39.0574 0 31.2397 0 22.13C0 9.90796 9.90407 0 22.1214 0C33.3478 0 42.621 8.36602 44.0513 19.2061H38.1353C36.7583 11.6092 30.1123 5.848 22.1214 5.848ZM19.1985 44.2601H22.1214C33.3478 44.2601 42.621 35.8941 44.0513 25.054H38.1353C36.9302 31.7024 31.6899 36.9447 25.0442 38.1503V11.7729H19.1985V32.718V44.2601Z" fill="#11181C"/>
</svg>
