<svg width="162" height="19" viewBox="0 0 162 19" fill="none" xmlns="http://www.w3.org/2000/svg">
<path d="M0 18.4963V0.377475H2.2663V8.36738H11.9172V0.377475H14.1835V18.4963H11.9172V10.4938H2.2663V18.4963H0Z" fill="#11181C"/>
<path d="M16.482 18.4963L22.6188 0.377475H25.7764L31.9132 18.4963H29.5578L23.8156 1.68606H24.5286L18.8374 18.4963H16.482ZM19.4358 14.256V12.1547H28.9594V14.256H19.4358Z" fill="#11181C"/>
<path d="M34.1924 18.4963V0.377475H36.4842L46.0459 14.5328V0.377475H48.3377V18.4963H46.0459L36.4842 4.32839V18.4963H34.1924Z" fill="#11181C"/>
<path d="M51.8979 18.4963V0.377475H57.5509C57.7376 0.377475 58.0644 0.38167 58.5313 0.390059C58.9981 0.398446 59.4437 0.431999 59.8681 0.490718C61.2856 0.675262 62.4697 1.18695 63.4204 2.02579C64.3795 2.85623 65.101 3.91316 65.5848 5.19658C66.0686 6.48 66.3105 7.89344 66.3105 9.43689C66.3105 10.9803 66.0686 12.3938 65.5848 13.6772C65.101 14.9606 64.3795 16.0217 63.4204 16.8606C62.4697 17.691 61.2856 18.1985 59.8681 18.3831C59.4437 18.4334 58.9939 18.467 58.5185 18.4837C58.0517 18.4921 57.7292 18.4963 57.5509 18.4963H51.8979ZM54.2278 16.3573H57.5509C57.8734 16.3573 58.2342 16.3489 58.6331 16.3321C59.0321 16.307 59.3801 16.2692 59.6772 16.2189C60.6787 16.0343 61.4893 15.6191 62.109 14.9732C62.7286 14.3273 63.1827 13.522 63.4713 12.5574C63.7599 11.5927 63.9042 10.5525 63.9042 9.43689C63.9042 8.29608 63.7556 7.24334 63.4586 6.27868C63.17 5.31402 62.7159 4.51293 62.0962 3.87542C61.4766 3.2379 60.6702 2.83107 59.6772 2.65491C59.3801 2.59619 59.0278 2.55845 58.6204 2.54167C58.213 2.52489 57.8565 2.5165 57.5509 2.5165H54.2278V16.3573Z" fill="#11181C"/>
<path d="M76.7677 18.8738C74.9428 18.8738 73.3937 18.4753 72.1205 17.6784C70.8473 16.8816 69.8754 15.7743 69.2049 14.3567C68.5428 12.939 68.2118 11.2991 68.2118 9.43689C68.2118 7.57468 68.5428 5.93476 69.2049 4.51713C69.8754 3.09949 70.8473 1.99223 72.1205 1.19534C73.3937 0.398446 74.9428 0 76.7677 0C78.8897 0 80.634 0.53266 82.0006 1.59798C83.3756 2.6633 84.322 4.09771 84.8398 5.9012L82.5353 6.50517C82.1618 5.15464 81.4955 4.08932 80.5364 3.3092C79.5772 2.52909 78.321 2.13903 76.7677 2.13903C75.4011 2.13903 74.2637 2.4452 73.3555 3.05755C72.4473 3.6699 71.764 4.52551 71.3057 5.62439C70.8473 6.71487 70.6139 7.98571 70.6054 9.43689C70.5969 10.8797 70.8218 12.1505 71.2802 13.2494C71.7385 14.3399 72.4261 15.1955 73.3428 15.8162C74.2595 16.4286 75.4011 16.7348 76.7677 16.7348C78.321 16.7348 79.5772 16.3447 80.5364 15.5646C81.4955 14.7761 82.1618 13.7108 82.5353 12.3686L84.8398 12.9726C84.322 14.7677 83.3756 16.2021 82.0006 17.2758C80.634 18.3411 78.8897 18.8738 76.7677 18.8738Z" fill="#11181C"/>
<path d="M87.6321 18.4963V0.377475H94.8766C95.0549 0.377475 95.2671 0.385864 95.5132 0.40264C95.7594 0.411029 95.997 0.436194 96.2262 0.478136C97.2193 0.629126 98.0511 0.96466 98.7217 1.48474C99.4007 2.00481 99.91 2.6633 100.25 3.46019C100.589 4.2487 100.759 5.12528 100.759 6.08994C100.759 7.4908 100.39 8.70711 99.6511 9.73887C98.9127 10.7623 97.8304 11.404 96.4044 11.664L95.5387 11.8024H89.8984V18.4963H87.6321ZM98.5434 18.4963L94.9275 11.123L97.1684 10.4435L101.141 18.4963H98.5434ZM89.8984 9.67596H94.8002C94.9615 9.67596 95.144 9.66757 95.3477 9.6508C95.5599 9.63402 95.7594 9.60466 95.9461 9.56272C96.5318 9.4285 97.0071 9.18524 97.3721 8.83293C97.7456 8.47223 98.0172 8.05282 98.1869 7.57468C98.3567 7.08816 98.4416 6.59324 98.4416 6.08994C98.4416 5.58664 98.3567 5.09592 98.1869 4.61779C98.0172 4.13126 97.7456 3.70765 97.3721 3.34695C97.0071 2.98625 96.5318 2.74299 95.9461 2.61716C95.7594 2.56683 95.5599 2.53748 95.3477 2.52909C95.144 2.51231 94.9615 2.50392 94.8002 2.50392H89.8984V9.67596Z" fill="#11181C"/>
<path d="M102.672 18.4963L108.809 0.377475H111.966L118.103 18.4963H115.748L110.005 1.68606H110.718L105.027 18.4963H102.672ZM105.626 14.256V12.1547H115.149V14.256H105.626Z" fill="#11181C"/>
<path d="M120.382 18.4963V0.377475H131.077V2.61716H122.649V8.31705H129.549V10.5567H122.649V18.4963H120.382Z" fill="#11181C"/>
<path d="M138.086 18.4963V2.50392H131.835V0.377475H146.604V2.50392H140.353V18.4963H138.086Z" fill="#11181C"/>
<path d="M155.137 18.8738C153.839 18.8738 152.667 18.6557 151.623 18.2195C150.588 17.7833 149.731 17.1626 149.052 16.3573C148.381 15.5436 147.944 14.5831 147.74 13.4759L150.083 13.111C150.38 14.2518 150.995 15.1452 151.929 15.7911C152.871 16.4286 153.979 16.7473 155.252 16.7473C156.075 16.7473 156.818 16.6215 157.48 16.3699C158.151 16.1098 158.681 15.7407 159.072 15.2626C159.462 14.7845 159.657 14.2183 159.657 13.564C159.657 13.1613 159.585 12.8174 159.441 12.5322C159.305 12.2386 159.114 11.9911 158.868 11.7898C158.63 11.5801 158.359 11.404 158.053 11.2614C157.747 11.1188 157.429 11.0013 157.098 10.909L152.426 9.53755C151.916 9.38656 151.424 9.19783 150.949 8.97134C150.473 8.73647 150.049 8.44707 149.675 8.10314C149.302 7.75083 149.005 7.33142 148.784 6.84489C148.563 6.34998 148.453 5.76699 148.453 5.09592C148.453 4.02221 148.733 3.10788 149.293 2.35293C149.862 1.58959 150.63 1.0066 151.598 0.603961C152.566 0.20132 153.656 0.00419411 154.87 0.0125819C156.101 0.0209706 157.2 0.239068 158.168 0.666874C159.144 1.08629 159.95 1.69025 160.587 2.47876C161.232 3.26726 161.665 4.21095 161.885 5.30982L159.479 5.72505C159.352 4.98687 159.067 4.35355 158.626 3.82509C158.193 3.28823 157.65 2.8772 156.996 2.592C156.343 2.29841 155.626 2.14742 154.845 2.13903C154.098 2.13064 153.423 2.24808 152.82 2.49134C152.218 2.7346 151.738 3.07433 151.381 3.51052C151.025 3.93833 150.847 4.43324 150.847 4.99526C150.847 5.54889 151.008 5.99767 151.331 6.34159C151.653 6.67713 152.048 6.94555 152.515 7.14687C152.99 7.33981 153.453 7.49918 153.902 7.62501L157.391 8.61903C157.79 8.72808 158.248 8.87907 158.766 9.072C159.292 9.26493 159.802 9.53755 160.294 9.88986C160.786 10.2338 161.194 10.6951 161.516 11.2739C161.839 11.8443 162 12.5657 162 13.4381C162 14.3105 161.822 15.0864 161.465 15.7659C161.117 16.4454 160.629 17.0158 160.001 17.4771C159.373 17.9301 158.643 18.274 157.811 18.5089C156.979 18.7522 156.088 18.8738 155.137 18.8738Z" fill="#11181C"/>
</svg>
