<svg width="126" height="35" viewBox="0 0 126 35" fill="none" xmlns="http://www.w3.org/2000/svg">
<path d="M10.6018 13.9533C14.7347 11.9767 17.9691 8.62245 19.8259 4.42966C18.628 3.17183 17.0706 2.27337 15.3935 1.7343L14.4951 1.43481C14.4352 1.55461 14.3753 1.73431 14.3753 1.8541C12.9377 5.92709 10.0028 9.22143 6.0496 11.0782C3.29434 12.396 1.25784 14.7918 0.299485 17.6669L0 18.5654C0.119794 18.6252 0.299488 18.6851 0.419282 18.6851C1.55732 19.1044 2.69537 19.6435 3.77351 20.3024C5.27094 17.607 7.66681 15.3309 10.6018 13.9533Z" fill="#11181C"/>
<path d="M27.9719 14.1929C25.7557 17.5471 22.701 20.2425 18.9275 22.0394C15.8727 23.4769 13.5367 26.1723 12.4586 29.4067L12.1591 30.425C13.2972 31.4432 14.6748 32.2219 16.1722 32.701L17.0707 33.0005C17.1306 32.8807 17.1905 32.701 17.1905 32.5812C18.628 28.5083 21.5629 25.2139 25.5161 23.3571C28.2714 22.0394 30.3678 19.6435 31.2663 16.7685L31.5657 15.87C30.3079 15.5106 29.11 14.9116 27.9719 14.1929Z" fill="#11181C"/>
<path d="M9.76326 27.3102C11.2607 23.7164 14.0159 20.7815 17.5499 19.1044C20.7843 17.547 23.4797 15.1512 25.3365 12.2162C23.9588 10.8985 22.8208 9.40104 21.9822 7.60413C19.766 11.6771 16.292 14.9715 12.0393 17.008C9.58357 18.146 7.60697 20.1226 6.40903 22.5185C7.72676 23.7763 8.80491 25.3336 9.64347 27.0706C9.64347 27.0706 9.70336 27.1905 9.76326 27.3102Z" fill="#11181C"/>
<path d="M38.7039 24.3918H48.7977V21.5939H41.9537V9.32631H38.7039V24.3918Z" fill="#11181C"/>
<path d="M59.3434 13.5446H56.3303V19.4847C56.3303 20.8621 55.4049 21.8952 54.092 21.8952C52.8652 21.8952 52.0044 20.9482 52.0044 19.6354V13.5446H49.0128V20.3026C49.0128 22.7776 50.6054 24.5639 53.0374 24.5639C54.5224 24.5639 55.7277 23.9183 56.3303 22.8852V24.3918H59.3434V13.5446Z" fill="#11181C"/>
<path d="M60.4627 24.3918H63.4758V18.2364C63.4758 16.8375 64.2721 15.9121 65.5204 15.9121C66.6826 15.9121 67.4143 16.8375 67.4143 18.2364V24.3918H70.4274V18.2364C70.4274 16.8375 71.2237 15.9121 72.472 15.9121C73.6342 15.9121 74.3875 16.8375 74.3875 18.2364V24.3918H77.3791V17.2895C77.3791 15.1157 75.851 13.3725 73.4836 13.3725C71.7403 13.3725 70.3844 14.2979 69.8679 15.3525C69.3513 14.0612 68.2537 13.3725 66.5535 13.3725C65.09 13.3725 64.0569 14.0827 63.4758 15.0727V13.5446H60.4627V24.3918Z" fill="#11181C"/>
<path d="M78.4056 8.8313V11.995H81.5908V8.8313H78.4056ZM78.4916 24.3918H81.5047V13.5446H78.4916V24.3918Z" fill="#11181C"/>
<path d="M82.6279 24.3918H85.641V18.4517C85.641 17.0527 86.5665 16.0412 87.8793 16.0412C89.1276 16.0412 89.967 16.9882 89.967 18.301V24.3918H92.98V17.6338C92.98 15.1373 91.3874 13.3725 88.9339 13.3725C87.4489 13.3725 86.2436 13.9966 85.641 15.0512V13.5446H82.6279V24.3918Z" fill="#11181C"/>
<path d="M99.2647 24.5639C102.601 24.5639 104.99 22.1965 104.99 18.9682C104.99 15.7399 102.601 13.3725 99.2647 13.3725C95.9287 13.3725 93.5398 15.7399 93.5398 18.9682C93.5398 22.1965 95.9287 24.5639 99.2647 24.5639ZM99.2647 21.9813C97.6505 21.9813 96.5529 20.7545 96.5529 18.9682C96.5529 17.1603 97.6505 15.9336 99.2647 15.9336C100.879 15.9336 101.976 17.1603 101.976 18.9682C101.976 20.7545 100.879 21.9813 99.2647 21.9813Z" fill="#11181C"/>
<path d="M115.902 13.5446H112.889V19.4847C112.889 20.8621 111.963 21.8952 110.651 21.8952C109.424 21.8952 108.563 20.9482 108.563 19.6354V13.5446H105.571V20.3026C105.571 22.7776 107.164 24.5639 109.596 24.5639C111.081 24.5639 112.286 23.9183 112.889 22.8852V24.3918H115.902V13.5446Z" fill="#11181C"/>
<path d="M120.981 24.5639C123.521 24.5639 125.2 23.208 125.2 21.1419C125.2 16.2349 119.26 18.753 119.26 16.5362C119.26 15.8475 119.841 15.4816 120.68 15.4816C121.498 15.4816 122.337 15.9766 122.466 16.9021H125.07C124.963 14.7714 123.198 13.3725 120.594 13.3725C118.377 13.3725 116.72 14.7283 116.72 16.6438C116.72 21.2065 122.552 19.0328 122.552 21.2495C122.552 21.8522 121.907 22.3041 120.981 22.3041C119.862 22.3041 119.109 21.7015 119.001 20.733H116.419C116.526 23.0789 118.334 24.5639 120.981 24.5639Z" fill="#11181C"/>
</svg>
