<svg width="116" height="33" viewBox="0 0 116 33" fill="none" xmlns="http://www.w3.org/2000/svg">
<path d="M51.3542 25.7512C49.8567 25.7512 48.5042 25.4937 47.2966 24.9788C46.0987 24.4542 45.1084 23.711 44.3259 22.7493C43.553 21.7778 43.0506 20.6265 42.8188 19.2956L45.9779 18.8147C46.2967 20.0971 46.9633 21.0977 47.9777 21.8166C48.9921 22.5258 50.1755 22.8804 51.5281 22.8804C52.3686 22.8804 53.1414 22.7493 53.8467 22.487C54.5519 22.2149 55.1171 21.8312 55.5421 21.3357C55.9769 20.8306 56.1943 20.2282 56.1943 19.5288C56.1943 19.1499 56.1266 18.8147 55.9914 18.5233C55.8658 18.2318 55.6871 17.9792 55.4552 17.7655C55.233 17.5421 54.9577 17.3526 54.6292 17.1972C54.3104 17.032 53.9578 16.8912 53.5713 16.7746L48.224 15.1862C47.7024 15.0308 47.171 14.8316 46.63 14.5887C46.089 14.3361 45.5915 14.0107 45.1374 13.6124C44.693 13.2044 44.3307 12.704 44.0505 12.1114C43.7704 11.5091 43.6303 10.7805 43.6303 9.92558C43.6303 8.63349 43.9588 7.54056 44.6157 6.64679C45.2823 5.74331 46.1808 5.06326 47.3111 4.60666C48.4414 4.14035 49.707 3.90719 51.1078 3.90719C52.5183 3.92662 53.779 4.17921 54.89 4.66495C56.0107 5.1507 56.9381 5.85017 57.6724 6.76337C58.4163 7.66686 58.9283 8.76464 59.2084 10.0567L55.9624 10.6105C55.8175 9.82357 55.5083 9.14838 55.035 8.58492C54.5616 8.01174 53.9819 7.57457 53.296 7.2734C52.6101 6.96253 51.8662 6.80223 51.0643 6.79252C50.2915 6.77309 49.5814 6.88967 48.9341 7.14225C48.2965 7.39484 47.7845 7.74943 47.398 8.20604C47.0213 8.66264 46.8329 9.18724 46.8329 9.77985C46.8329 10.3627 47.0019 10.8339 47.3401 11.1934C47.6782 11.5528 48.0936 11.8394 48.5863 12.0531C49.0887 12.2572 49.5862 12.4272 50.0789 12.5632L53.9336 13.6561C54.4167 13.7921 54.9625 13.9767 55.5711 14.2098C56.1894 14.4333 56.7836 14.749 57.3536 15.1571C57.9332 15.5651 58.4114 16.1091 58.7882 16.7892C59.165 17.4595 59.3534 18.3047 59.3534 19.3247C59.3534 20.3837 59.1408 21.3163 58.7157 22.1226C58.2907 22.9193 57.7062 23.5896 56.9623 24.1336C56.2281 24.6679 55.3779 25.0711 54.4118 25.3431C53.4457 25.6152 52.4265 25.7512 51.3542 25.7512Z" fill="#1D1D1B"/>
<path d="M61.8619 25.314V3.89262H64.8906V25.314H61.8619Z" fill="#1D1D1B"/>
<path d="M75.1693 25.7512C73.6042 25.7512 72.2468 25.3966 71.0972 24.6874C69.9476 23.9782 69.0588 23.0018 68.4308 21.7583C67.8125 20.5051 67.5034 19.0624 67.5034 17.4303C67.5034 15.7885 67.8222 14.3459 68.4598 13.1023C69.0974 11.8491 69.991 10.8776 71.1407 10.1879C72.2903 9.4884 73.6332 9.13867 75.1693 9.13867C76.7343 9.13867 78.0917 9.49326 79.2413 10.2024C80.3909 10.9116 81.2797 11.888 81.9077 13.1315C82.5357 14.375 82.8496 15.808 82.8496 17.4303C82.8496 19.0722 82.5308 20.5197 81.8932 21.7729C81.2653 23.0164 80.3765 23.9928 79.2268 24.702C78.0772 25.4014 76.7246 25.7512 75.1693 25.7512ZM75.1693 22.8804C76.6667 22.8804 77.7825 22.3752 78.5167 21.3649C79.2606 20.3448 79.6326 19.0333 79.6326 17.4303C79.6326 15.7885 79.2558 14.477 78.5023 13.4958C77.7584 12.5049 76.6474 12.0094 75.1693 12.0094C74.1549 12.0094 73.3192 12.2426 72.6623 12.7089C72.0053 13.1655 71.5174 13.8018 71.1986 14.6179C70.8798 15.4242 70.7204 16.3617 70.7204 17.4303C70.7204 19.0819 71.0972 20.4031 71.8507 21.394C72.6043 22.3849 73.7105 22.8804 75.1693 22.8804Z" fill="#1D1D1B"/>
<path d="M92.5117 25.7512C91.0143 25.7512 89.7584 25.3869 88.744 24.6582C87.7296 23.9199 86.9615 22.9241 86.4399 21.6709C85.9182 20.4177 85.6573 19.0042 85.6573 17.4303C85.6573 15.8565 85.9133 14.443 86.4254 13.1898C86.9471 11.9366 87.7103 10.9505 88.715 10.2316C89.7294 9.50298 90.9756 9.13867 92.4537 9.13867C93.9222 9.13867 95.1878 9.50298 96.2505 10.2316C97.3228 10.9505 98.1488 11.9366 98.7285 13.1898C99.3081 14.4333 99.598 15.8468 99.598 17.4303C99.598 19.0042 99.3081 20.4225 98.7285 21.6855C98.1585 22.9387 97.3421 23.9296 96.2794 24.6582C95.2264 25.3869 93.9705 25.7512 92.5117 25.7512ZM85.1501 32.3087V9.57584H87.8455V20.8986H88.1933V32.3087H85.1501ZM92.0915 22.997C93.0576 22.997 93.8546 22.7493 94.4825 22.2538C95.1201 21.7583 95.5935 21.0929 95.9027 20.2574C96.2215 19.4122 96.3809 18.4698 96.3809 17.4303C96.3809 16.4006 96.2215 15.4679 95.9027 14.6324C95.5935 13.797 95.1153 13.1315 94.468 12.636C93.8208 12.1406 92.9948 11.8928 91.99 11.8928C91.0433 11.8928 90.2607 12.126 89.6424 12.5923C89.0338 13.0586 88.5797 13.7095 88.2803 14.545C87.9904 15.3805 87.8455 16.3423 87.8455 17.4303C87.8455 18.5184 87.9904 19.4802 88.2803 20.3157C88.5701 21.1512 89.029 21.8069 89.6569 22.2829C90.2849 22.759 91.0964 22.997 92.0915 22.997Z" fill="#1D1D1B"/>
<path d="M108.869 25.7512C107.314 25.7512 105.947 25.4111 104.768 24.7311C103.599 24.0413 102.686 23.0844 102.03 21.8603C101.382 20.6265 101.059 19.1985 101.059 17.5761C101.059 15.8565 101.377 14.3653 102.015 13.1023C102.662 11.8394 103.561 10.8631 104.71 10.1733C105.86 9.48355 107.198 9.13867 108.725 9.13867C110.319 9.13867 111.676 9.51269 112.797 10.2607C113.917 10.9991 114.753 12.0531 115.304 13.4229C115.864 14.7927 116.086 16.42 115.97 18.3047H112.942V17.1972C112.922 15.3708 112.574 14.0204 111.898 13.1461C111.232 12.2717 110.212 11.8346 108.84 11.8346C107.324 11.8346 106.184 12.3154 105.421 13.2772C104.657 14.239 104.276 15.6282 104.276 17.4449C104.276 19.1742 104.657 20.5148 105.421 21.4669C106.184 22.4092 107.285 22.8804 108.725 22.8804C109.671 22.8804 110.488 22.6667 111.174 22.2392C111.869 21.802 112.41 21.1803 112.797 20.374L115.767 21.3212C115.159 22.7298 114.236 23.8228 112.999 24.5999C111.763 25.3674 110.386 25.7512 108.869 25.7512ZM103.29 18.3047V15.9294H114.463V18.3047H103.29Z" fill="#1D1D1B"/>
<path fill-rule="evenodd" clip-rule="evenodd" d="M11.2684 1.2084C12.0423 0.434666 13.0919 0 14.1862 0C17.8632 0 19.7044 4.44579 17.1041 7.04548L8.36026 15.7872C8.21974 15.9277 8.21974 16.1555 8.36026 16.2959C8.50077 16.4364 8.7286 16.4364 8.86911 16.2959L19.5488 5.61875C22.9131 2.25531 28.3676 2.25531 31.7319 5.61875C35.0961 8.98219 35.0961 14.4354 31.7319 17.7988L21.542 27.9862C20.7681 28.76 19.7186 29.1946 18.6242 29.1946C14.9473 29.1946 13.1061 24.7488 15.7064 22.1492L25.8948 11.9632C26.0353 11.8227 26.0353 11.5949 25.8948 11.4544C25.7543 11.3139 25.5264 11.3139 25.3859 11.4544L14.7062 22.1316C11.3419 25.4951 5.88743 25.4951 2.52318 22.1316C-0.84106 18.7682 -0.841062 13.315 2.52318 9.95152L11.2684 1.2084Z" fill="#1D1D1B"/>
</svg>
