<svg width="95" height="25" viewBox="0 0 95 25" fill="none" xmlns="http://www.w3.org/2000/svg">
<path d="M74.4551 23.339V22.2715L81.7742 0.4259H87.5975L94.9995 22.0607V24.4038H92.0181L89.7228 17.2487L88.7877 14.4378H80.7116L79.7765 17.2487L77.4812 24.4038H75.6109H74.4551V23.339ZM84.7496 1.91653L80.7116 14.4378H88.7877L84.7496 1.91653Z" fill="black"/>
<path d="M66.8654 0.4259H70.4784V24.4038H63.805L53.7312 2.00171H53.6462V24.4038H50.0332V0.4259H56.2815L66.7804 22.8279H66.8654V0.4259Z" fill="black"/>
<path d="M34.5143 25C30.6888 25 27.7701 23.8785 25.7581 21.6354C23.7462 19.364 22.7402 16.3118 22.7402 12.4787C22.7402 9.95173 23.1653 7.76547 24.0154 5.91993C24.8939 4.046 26.1974 2.59796 27.9259 1.57581C29.6828 0.525271 31.8789 0 34.5143 0C38.3398 0 41.2443 1.13572 43.2279 3.40715C45.2399 5.6502 46.2458 8.67405 46.2458 12.4787C46.2458 14.9489 45.7924 17.1352 44.8857 19.0375C44.0072 20.9114 42.6895 22.3737 40.9326 23.4242C39.2041 24.4747 37.0646 25 34.5143 25ZM34.4718 21.5928C37.2205 21.5928 39.2891 20.7411 40.6776 19.0375C42.0661 17.3339 42.7604 15.1476 42.7604 12.4787C42.7604 9.80977 42.0661 7.62351 40.6776 5.91993C39.3174 4.18796 37.2488 3.32198 34.4718 3.32198C31.7514 3.32198 29.6828 4.14537 28.266 5.79216C26.8774 7.43896 26.1832 9.6678 26.1832 12.4787C26.1832 14.2391 26.4807 15.8149 27.0758 17.2061C27.6709 18.569 28.5777 19.6479 29.7962 20.4429C31.043 21.2095 32.6015 21.5928 34.4718 21.5928Z" fill="black"/>
<path d="M0 24.4038V21.4225L15.387 3.49234H1.23266V0.4259H19.8926V3.44975L4.67562 21.2947H19.8076V24.4038H4.67562H1.59396H0Z" fill="black"/>
</svg>
